# xmcd
#
# Track frame offsets:
#	150
#	19034
#	30809
#	44919
#	55143
#	71314
#	83965
#	100786
#	119653
#	135713
#	148447
#	163733
#	178654
#
# Disc length: 2595 seconds
#
# Revision: 0
# Processed by: cddbd v1.5.2PL0 Copyright (c) Steve Scherf et al.
# Submitted via: EZCDAudioConverter 2.1.5.1
#
DISCID=b80a210d
DTITLE=Donna Ulisse - Showin' My Roots
DYEAR=2013
DGENRE=Country
TTITLE0=Showin' My Roots
TTITLE1=One Way Rider
TTITLE2=Take This Hammer
TTITLE3=How Mountain Girls Can Love
TTITLE4=If That's The Way You Feel
TTITLE5=Fist City
TTITLE6=In The Good Old Days When Times Were Bad
TTITLE7=Wait A Little Longer Please Jesus
TTITLE8=Somebody Somewhere
TTITLE9=Your Good Girl's Gonna Go Bad
TTITLE10=I Hope You Have learned
TTITLE11=Send me Ther Pillow You Dream On
TTITLE12=I've Always Had A Song I Can Lean On 
EXTD=
EXTT0=
EXTT1=
EXTT2=
EXTT3=
EXTT4=
EXTT5=
EXTT6=
EXTT7=
EXTT8=
EXTT9=
EXTT10=
EXTT11=
EXTT12=
PLAYORDER=
